<svg width="1600" height="1900" viewBox="0 0 1600 1900" fill="none" xmlns="http://www.w3.org/2000/svg">
<rect width="1600" height="1900" fill="#F8EEE8"/>
<rect x="72" y="72" width="1456" height="1756" rx="72" fill="url(#paint0_linear)"/>
<circle cx="1250" cy="380" r="250" fill="#F5D9DD"/>
<circle cx="330" cy="1450" r="310" fill="#EFD9C8"/>
<path d="M1030 560C1188 560 1316 688 1316 846C1316 1004 1188 1132 1030 1132C872 1132 744 1004 744 846C744 688 872 560 1030 560Z" fill="#F9F5F1"/>
<path d="M560 1210C784 1080 972 1096 1188 1294" stroke="#A9777F" stroke-width="24" stroke-linecap="round"/>
<path d="M490 1420C740 1250 1002 1268 1244 1496" stroke="#B89243" stroke-opacity="0.65" stroke-width="18" stroke-linecap="round"/>
<rect x="310" y="420" width="180" height="980" rx="90" fill="#24191B" fill-opacity="0.08"/>
<rect x="520" y="330" width="180" height="1160" rx="90" fill="#24191B" fill-opacity="0.12"/>
<defs>
<linearGradient id="paint0_linear" x1="210" y1="140" x2="1350" y2="1720" gradientUnits="userSpaceOnUse">
<stop stop-color="#FFFDFC"/>
<stop offset="1" stop-color="#F3E5DB"/>
</linearGradient>
</defs>
</svg>
